<svg xmlns="http://www.w3.org/2000/svg" xmlns:xlink="http://www.w3.org/1999/xlink" width="1530" height="990" viewBox="0 0 1530 990">
  <defs>
    <clipPath id="clip-path">
      <path id="path1386" d="M0,0H1530V-990H0Z" fill="#fff" stroke="#d1d1d1" stroke-width="10"/>
    </clipPath>
  </defs>
  <g id="layer1" transform="translate(96.616 -247.142)">
    <g id="g1380" transform="translate(-96.616 1237.142)">
      <g id="g1382" clip-path="url(#clip-path)">
        <g id="g8256" transform="translate(-1.437 23.919)">
          <g id="g1408" transform="translate(919.6 -479.465)">
            <path id="path1410" d="M0,0-2.709-1.23-6.026-.081a7.583,7.583,0,0,0-3.966-5.33,5.2,5.2,0,0,0-4.688,0l-1.007.865-1.662-2.77L96.922-124.945l15.646,6.067ZM-38.689,25.739l-7.5,7.35-2.31-3.317-1.23-.594.8-4.4,1.635-2.1,4.709,2.3.547-.615,3.351,1.385Zm5.4,15.639L-57.348,66.955l3.229-11.126V46.985l2.3-6.249,1.344-7.445.243-.25-.182-.088,4.074,2.013a5.847,5.847,0,0,0,3.175,5.958,5,5,0,0,0,6.343-1.25l3.526,1.7Zm-177.023,157.3L-81.857,65.772l-3.128,10.343v8.363l7.627,3.756-114.527,121.79ZM66.225-140.469l-.743,3.337L-50.957-23.172l-2.506-1.135v3.594l36.7,17.389-4.9,4.979L-24.631.426l-1.155,1.513L-26,3.526l-1.946-1.081-4.175.2.885-4.5L-114.6-40.7l-9.9,9.181L-126.424-15.9-73.636,9.829v7.735L-83.83,12.613l-.574,3.513,10.768,5.323L-84.4,16.126-246.545,176.382l-2.486-1.527v3.979l36.25,22.395,18.443,11.4,38.568,23.827L2.7,58.713l.959-3.364L-34.028,36.892l5.769-6.445a5.413,5.413,0,0,0-2.594-5.675l1.534-1.919c.486-1.061-.959-2.31-.959-2.31l-5.046-3.736.527-.588.831-4.229h5.513l6.85,3.29,1.155-1.3.507-2.452s2.668,1.155,4.54-.79l8.654-9.235L32.758,19.179,145.313-106.178l1.169-3.216L66.225-140.469Z" fill="#fff" stroke="#d1d1d1" stroke-width="10"/>
          </g>
          <g id="g1412" transform="translate(485.282 -575.734)">
            <path id="path1414" d="M0,0H.338L5.479-3.8v-7.742L.865-13.748l-5.573,3.8v1.824l-1.783-.912-5.621,3.918V-.29l7.357,3.8Z" fill="#fff" stroke="#d1d1d1" stroke-width="10"/>
          </g>
          <g id="g1416" transform="translate(766.508 -478.82)">
            <path id="path1418" d="M0,0-.345-3.27,1.439-13.917a7.168,7.168,0,0,0,2.027,1.608,4.745,4.745,0,0,0,6.283-.865l3.087,1.513ZM-152.94,138.915l-16.132-9.9L-21.712-1.75l-2.668,8.478.77,8.654-1.608,7.526Zm30.9-253.091v-9.485a3.619,3.619,0,0,0-.7-2.081l14.4.2.128-5.127,3.108-.642-.068,2.324-2.277.635-.892,20.6-13.7-6.425Zm-72.224,43.317v7.141l-7.863-4.067c.122-.257.23-.527.331-.8a6.329,6.329,0,0,0,1.851-.9l6.614-4.715a6.656,6.656,0,0,0-.932,3.337m-52.5-114.413a4.477,4.477,0,0,0,.912,1.615l.054.4-1.432.993-.108-.041.095-2.628.48-.338Zm3.2.473.1-.372.243.128-.345.243Zm9.113,13.329,4.83-.149a4.185,4.185,0,0,0-.142.554l-6.607,3.256-2.756-1.29-.007-.074,4.4-2.391a1.146,1.146,0,0,0,.284.095m201.019-22.5c3.27-2.459,3.884-6.033,2.959-9.627l.081-.041a7.83,7.83,0,0,0,2.169-3.817l4.614-.655,3.533-3.027,1.155-.507-.216,1.013,13.045,20.192,1.777-1.216-2.473,2.344-12.592,7.4-7.472,7.465-21.057-8.715Zm22.03,51.673-12.018,7.019-2.3,2.148.068-3.56,3.3-3.108,11.917-7.31,3.324-3.033,2.689,1.169-6.972,6.675Zm-84.506,12.241.263,1.919a11.737,11.737,0,0,0,2.31,1.344l-2.918,1.182-6.364-3.047,6.708-1.4Zm19.537-39.486-.23,4.945a19.574,19.574,0,0,0-3.54-1.094,8.489,8.489,0,0,0,3.77-3.851m-4.884,55.261,4.384-2.925L-66.11-127.39l1.121-.73,5.837-.311-7.627,4.594-10.194,9.519-4.411,2.067.128-2.027Zm58.6-42.594-6.884,6.526-5.877.209,5.357-3.4,4.688-4.506,2.716,1.175ZM-64.428-175.9l1.871-1.067-1.628,1.115v.676l23.368,9.87-1.351.8-10.093,9.8-9.363,5.486-2.655.095-.216,1.581-1.23.723-3.324,3.236-4.526.149.716-8.073,1.121-3.337,1.04-3.081a5.09,5.09,0,0,0-.7-2.533l10.958,4.8,1.061-.77.865-14.808-7.918-3.249,2-1.412Zm18.8,57.254-10,9.708-12.788,7.695-9.005,8L-79.8-94.355l2.635-1.594,9.417-8.944,12.788-8.073,10.383-9.9,11.383-6.958,4.161-.223-4.2,3.911-12.4,7.5Zm26.82,83.4v-.426l.034.446ZM9.951-26.968l.088.047L2.831-20.578,2.574-20.7l.635-3.817L4.9-26.968l3.216,1.486Zm-322.9-149.792v1.777l-4.182,2.452-3.8-1.81-.345-8.485,9.6,4.749-1.277,1.317Zm-16.207-42.729.3,4.128,2.256,1.007-1.973,1.223-6.614-3.054Zm129.8-71.123,10.167,3.986-102.354,56.713-.885-.4-4.276,2.452v.8l-.892.493-.169-6.006-3.8-1.878-.007-.162,102.212-56Zm-170.018,85.823.459.216-.135.074Zm-26.117,21.733-.48,3.567-143.489,79.2-10.35-6.371,151.879-82.5,2.439,6.1ZM-604.9-140.307l-9.62-5.9,177.6-88.89,1.912.939c.959,4.756,4.709,4.371,4.709,4.371l2.5-1.054.73.365L-604.9-140.307Zm183.259-93.464v1.148l3.844,1.756,1.277-.439-.142-4.411,2.04-1.756,1.54,1.155.682,9.762-12.315-5.823Zm159.3-81.574,9.269,3.634-136.747,69.7-9.35-4.371ZM30.839-55.93,152.3-163.472l14.193,5.506L46.066-49.133,42.58-50.694l-1.655.939a6.6,6.6,0,0,0-3.966-5.337,4.375,4.375,0,0,0-3.175,0l-1.513.966ZM46.093.574,12.633-16.058l5.675-5.094c1.155-1.831-.581-3.8-.581-3.8l2.31-2.358c.574-.865-.574-1.973-.574-1.973l-3.56-2.6v-1.966l1.54-2.594.061-1.007,4.384.378,6.2,2.668,1.223-1.007v-3.243l11.248-9.3h.649L76.284-32.157,196.615-146.292l.784-3.256-73.481-28.272-.378,3.2L.446-70.549l-2.527-1.175v3.31l33.2,15.632-5.337,4.324-.716-.142-1.23,1.148-.29,1.52-2.087-1.081-3.412.412.263-4.357L-13.423-66.049l-6.634-.486-1.729-1.25-13.727-6.222.871-.77h3.385s2.6,1.23,1.013-1.007l-.581-2.6,1.878.655,1.081-1.088v-.716s3.749,1.729,6.56-1.23,1.878-7.573.649-9.228-3.385-.358-3.385-.358l.216-3.391-1.155-.649.142-1.8.649-.574.216-6.634-1.581-.581-1.588,1.371-3.466.29-4.83,4.04-.068,3.243-3.175,2.452s-5.121-1.729-3.891,2.952l-1.081.8-1.588.358-.216,9.951h-.007l-17.45-7.918,6.039-3.932,10.187-9.809,12.4-7.5,9.424-9.228,12.018-7.3,8.363-8.269,1.729-15.754,9.708,4.215L20.9-155.365l-21.544-8.87.966-10.073-7.8,7.256-3.7-1.52,2.756-1.7,9.329-8.85,1.824-19.226-4.114,3.911-12.856-19.943v-.581a6.224,6.224,0,0,0,4.256-1.223c3.391-2.668,2.236-7.141,0-10.525s-6.492-3.533-8.222-3.1-3.1,3.1-3.1,3.1h-.358l-13.342-20.915-5.114,3.466,13.552,21.267v.507l-4.83,3.351-2.094,4.222a5.649,5.649,0,0,0-3.682.02l-9.992-7.782-1.169-.581a2.624,2.624,0,0,0-1.716-3.553s-2.006-.1-2.2.669c0,0-3.952.1-2.216,4.04,1.729,2.979,4.614.385,4.614.385l6.918,5.046a5.216,5.216,0,0,0-3.844.716L-66.59-202.553a8.739,8.739,0,0,0-3.837,7.053l-4.621,3.358c.014-.1.02-.169.02-.169l.581-.939v-.29l.554-.378-.554-.236v-3.493l-1.3-.574c-.216-1.5-2.236-4.026-3.02-4.641a5.658,5.658,0,0,0-3.614-1.054,7.471,7.471,0,0,0-2.27.331l.176-1.919H-86.85l-.358,3.31-2.824,1.513-19.436-8.14.574-.581-29.421-12.207-15.092,9.519L-123.8-199.4l.77-.48L-90.167-185.8v.912a10.088,10.088,0,0,0,2.6,4.06,8.492,8.492,0,0,0-4.3,4.668l-.243-.162.52-8.85-15.72-6.729-1.392.574-.48,14.423,3.716,1.675-24.475,17.267.338-13.781-3.243,11.964v3.864l-1.371.966.459-18.7L-137-161.675v15.565a7.957,7.957,0,0,0-1.2.594l-2.75.088,2.256-9.242.5-20.551-3.243,11.971v17.835l-5.046.162v-1.27l-2.31-1.25a3.807,3.807,0,0,0-3.648-2.5l-2.121.189-7.884-3.749-9.134-1.439-1.534,2.783-6.729,1.351v1.729l2.885,1.729v3.655l2.115,1.054v4.013l-38.27-17.95-5.823-2.729,5.155-3.81,12.977-6.924,10.674-7.884,12.687-6.148,9.9-7.695,11.728-6.249.48-17.206-12.011,5.864-10.289,7.593-12.6,6.06L-200.8-188.15l-13.079,6.438-10.924,8.08a3.028,3.028,0,0,0-.635-2.959h-.068l.574-.311,11.052-8.363,13.173-6.445,10.674-8.073,12.687-6.735,10.1-7.5,11.917-5.958.486-17.977-12.5,6.148-10.1,7.884-12.788,6.154-10.863,7.978-12.977,6.539-11.059,8.08-13.457,6.918-2.925,2.027c-.007-.061-.007-.1-.007-.1l-.865-.432v-1.23l1.7-1.635,1.709-1.223,13.944-7.5,10.958-8.458,13.363-6.924L-190.129-222l12.782-6.344,10.383-7.978,12.12-6.445V-260.84l-12.214,6.154-10.383,7.985-12.977,6.438-10.958,8.363-13.369,6.729-11.343,8.465-13.653,6.918-11.728,8.37-7.208,1.439-6.06-2.79-3.364.865.838,19.618-11.9-5.58.095-.669-6.533-3.081-.534-.236v-3.466l4.519-2.736,4.425,2.115,4.134-2.547-.243-6.83-2.209-1.007,2.115-1.25-.338-6.783-2.3-1.054,2.114-1.25-.041-1.493L-168.241-278.4l.345-2.675-51.775-20.267v2.75l-136.416,72.764-2.533-1.169v2.885l24.631,11.539h-4.682l-9.519,4.418.723,13.288-11.586-5.594,5.384-2.885a7.013,7.013,0,0,0,.3-2.256l.851-.439v-15.187l-20.159-9.424.027-.682,139.05-72.724.365-2.473-48.235-19.037-.169,2.648-136.8,67.515-2.777-1.3v3.81l16.193,7.587-9.606,4.756-2.189-1.439-4.4-.358-1.973.263-10.958,5.668-2.115-1.635-20-9.708v3.175l-177.186,86.762-3.047-1.871v3.364l18.916,11.653,9.62,5.918,19.611,12.079L-407.22-220.55v-2.371l5.958,2.858v11.106l-169.173,89.606-3.216-1.986v3.7l20.659,12.714,10.37,6.384,21.74,13.383,126.5-71.65-.149,2.02,13.849,7.208,1.439-10.187-2.716-6.08,42.229-23.922L-362-198.25l-21.895,12.092.128-8.627-.709-1.682,12.356-6.715-14.349-7.114,17.315,8.586c.1,3.844,4.425,4.134,4.425,4.134l2.115-.959,22.881,10.762v-2.52l3.162,1.534-.561,10.025,3.263,8.363L-335.4-159.79l3.074,8.748-1.439,10.194,2.979,8.167-1.25,10.478,14.808,7.884,1.534-10.572-2.979-7.978,1.493-9.985.527.27,3.8-2.209,6.391,3.175,4.236-2.452v-3.56l.432-.385,2.115,1.3-1.878,1.25.29,6.445,3.7,1.729.189,4.52,1.682.912,2.358-1.486,6.634,3.364,4.04-2.547-.243-6.587-.77-.2,2.932-1.919,6.492,3.412,4.087-2.743-.243-6.438-1.824-.817,1.635-1.155-.29-6.539-1.824-.865,2.358-1.54,4.222,2.04.628,14.646,19.422,9.323,1.344-2.594v-8.944l1.959-1.162,6.985,3.378.642.311-.378.385a3.539,3.539,0,0,0,1.655,4.033h1.513c-1.439,2.668,1.013,3.607,1.013,3.607l2.668.074.939.939,1.365.068,1.081.723,5.486,5.769-1.588.074a3.354,3.354,0,0,0,1.8,3.966l3.459.142a6.023,6.023,0,0,0,1.3.676l-8.323,5.431-.959-.29-2.162,1.007-.115,2.52.878.513,1.682-.912,7.836,3.938v2.885l5.817,3.074,1.682-.959.1-1.2,2.439,1.317-11.336,7.816a5.408,5.408,0,0,0-1.689,1.878,5.7,5.7,0,0,0-2.824.946l-15.065,10.079a5.733,5.733,0,0,0-2.864-3.945l-26.793-13.6c-4.925-2.533-11.883,3.533-15.8,10.829l-4.472-2.486-5.431,3.8v4.81l6.918,3.736c-.095,3.3,1.02,6.121,3.891,7.674l26.083,13.795a7.6,7.6,0,0,0,2.067.736l-1.561,4.1-3.607,2.547a1.611,1.611,0,0,0-.284.284c-.8,1.034-.662,3.594,1.777,6.593a6.231,6.231,0,0,0,6.438,2.162l4.661-3.317,3.182-2.844c3.553,2.439,7.35,3.317,10.4,1.27l1.4-.932a6.222,6.222,0,0,0,2.459,2.378l55.842,29.893a6.137,6.137,0,0,0,5.83-.209l1.7.75-5.31,4.087v5.053l-9.161,6.992V7.35l4.83,2.668,2.817-2.162v2.594l4.682,2.452,1.878-1.439.074,2.52,4.83,2.527,2.452-2.236-.149.581-1.439,1.871-.074,1.513,4.979,2.81,8.546-7.134V10.741l.757-.865,3.026,1.662L-127.951-.291l.074-1.081h.649l5.4-4.472v-5.769l-4.688-2.52v-2.452l-6.343-2.452v-1.081L-138.767-23v-.581l-4.83-2.736-8.363,6.634-3.966-1.729-1.993,1.527-1.54-.662v-1.669c5.391-7.972,8.188-19.5,2.067-22.442l-.088-.047-5.587-2.885A7.229,7.229,0,0,0-161-52.471V-70.859c0-5.573-7.445-10.093-16.632-10.093a25.444,25.444,0,0,0-7.918,1.216l23.563-16.788A8.851,8.851,0,0,0-159.608-99a6.451,6.451,0,0,0,1.088-.108c.25,2.182,1.1,3.925,2.736,4.715l10.863,5.249c-.088,1.236-.169,2.432-.216,3.385-.189,3.655,2.547,9.329,3.054,9.809a13.693,13.693,0,0,0-1.121,7.607,6.248,6.248,0,0,0,1.419,3.108,7.643,7.643,0,0,0-2.391,5.56A7.675,7.675,0,0,0-141-53.464a8.929,8.929,0,0,0-2.2,5.776l-.973,12.309-1.946,3.074s-.358,6.445,9.64,6.445c7.978-.676,7.688-5.29,7.688-5.29l-1.534-3.844-.095-13.558a12.3,12.3,0,0,0-1.689-4.8,7.668,7.668,0,0,0,3.317-6.323,7.663,7.663,0,0,0-2.385-5.56A6.88,6.88,0,0,0-129.6-67.88a9.4,9.4,0,0,0-.54-7.019,20.832,20.832,0,0,0,1.682-2.331h3.533l1.493-1.574-.014-.007c3.3,1.2,6.3-.77,8.472-4.013l5.445,2.614-.615,14.16v.574l22.881,11.343,2.31-2.115.75-11.8,40.858,19.611-1.182.844v6.2l-4.614-2.162-4.033,3.168-.507,6.85,1.608.844-1.966,1.54-.385,6.729,1.344.77-1.635,1.439-.236,5.7L-201.58,109.049l-2.628-1.608V111.3l32.481,20.071,16.126,9.964,34.129,21.084L44.844,4.04,46.093.574Z" fill="#fff" stroke="#d1d1d1" stroke-width="10"/>
          </g>
        </g>
      </g>
    </g>
  </g>
</svg>
